<svg xmlns="http://www.w3.org/2000/svg" style="display:none" aria-hidden="true">
  <symbol id="icon-theme" viewBox="0 0 24 24"><path d="M12 3v2m0 14v2M3 12h2m14 0h2M5.6 5.6 7 7m10 10 1.4 1.4m0-12.8L17 7M7 17l-1.4 1.4"/><circle cx="12" cy="12" r="4"/></symbol>
  <symbol id="icon-close" viewBox="0 0 24 24"><path d="m6 6 12 12M18 6 6 18"/></symbol>
  <symbol id="icon-arrow" viewBox="0 0 24 24"><path d="M5 12h14m-6-6 6 6-6 6"/></symbol>
  <symbol id="icon-evidence" viewBox="0 0 24 24"><path d="M4 5h16v14H4zM8 9h8M8 13h5"/></symbol>
  <symbol id="icon-method" viewBox="0 0 24 24"><circle cx="6" cy="12" r="2"/><circle cx="18" cy="6" r="2"/><circle cx="18" cy="18" r="2"/><path d="m8 11 8-4m-8 6 8 4"/></symbol>
</svg>
