<svg xmlns="http://www.w3.org/2000/svg" style="display:none" aria-hidden="true">
  <symbol id="icon-theme" viewBox="0 0 24 24"><path d="M12 3v2m0 14v2M3 12h2m14 0h2M5.6 5.6 7 7m10 10 1.4 1.4m0-12.8L17 7M7 17l-1.4 1.4"/><circle cx="12" cy="12" r="4"/></symbol>
  <symbol id="icon-close" viewBox="0 0 24 24"><path d="m6 6 12 12M18 6 6 18"/></symbol>
  <symbol id="icon-arrow" viewBox="0 0 24 24"><path d="M5 12h14m-6-6 6 6-6 6"/></symbol>
  <symbol id="icon-evidence" viewBox="0 0 24 24"><path d="M4 5h16v14H4zM8 9h8M8 13h5"/></symbol>
  <symbol id="icon-method" viewBox="0 0 24 24"><circle cx="6" cy="12" r="2"/><circle cx="18" cy="6" r="2"/><circle cx="18" cy="18" r="2"/><path d="m8 11 8-4m-8 6 8 4"/></symbol>
  <symbol id="icon-profile" viewBox="0 0 24 24"><circle cx="12" cy="8" r="4"/><path d="M4 21c1-5 4-7 8-7s7 2 8 7"/></symbol>
  <symbol id="icon-pasa" viewBox="0 0 24 24"><path d="M4 18 9 6l3 12 3-9 5 9"/></symbol>
  <symbol id="icon-pivote" viewBox="0 0 24 24"><circle cx="12" cy="12" r="3"/><path d="M12 3v6m0 6v6M3 12h6m6 0h6"/></symbol>
  <symbol id="icon-capability" viewBox="0 0 24 24"><path d="m5 13 4 4L19 7"/><circle cx="12" cy="12" r="10"/></symbol>
  <symbol id="icon-linkedin" viewBox="0 0 24 24"><path d="M6 9v9M6 6v.01M10 18v-9m0 4c1-3 7-3 7 2v3"/></symbol>
  <symbol id="icon-github" viewBox="0 0 24 24"><path d="M8 20c-5 1-5-3-7-4m14 4v-3c0-1 .2-2-.5-3.5 3 0 6-1.5 6-6A5 5 0 0 0 19 4c.2-1-.1-2-1-3 0 0-1.5-.5-4 1a13 13 0 0 0-5 0C6.5.5 5 1 5 1c-.9 1-1.2 2-1 3a5 5 0 0 0-1.5 3.5c0 4.5 3 6 6 6C8 15 8 16 8 17v3"/></symbol>
  <symbol id="icon-whatsapp" viewBox="0 0 24 24"><path d="M20 11.5a8 8 0 0 1-12 7L4 20l1.5-4A8 8 0 1 1 20 11.5Z"/><path d="M9 8c.5 3 2 4.5 5 5l1-1c.5-.5 2 .5 2 1.5 0 1.5-2 2-3 2-4 0-7-3-7-7 0-1 .5-3 2-3 .8 0 2 1.5 1.5 2Z"/></symbol>
  <symbol id="icon-email" viewBox="0 0 24 24"><rect x="3" y="5" width="18" height="14" rx="2"/><path d="m4 7 8 6 8-6"/></symbol>
</svg>
